<svg width="32" height="32" viewBox="0 0 32 32" fill="none" xmlns="http://www.w3.org/2000/svg">
  <!-- Moon shape -->
  <path d="M16 4C20.4183 4 24 7.58172 24 12C24 16.4183 20.4183 20 16 20C11.5817 20 8 16.4183 8 12C8 7.58172 11.5817 4 16 4Z" fill="#3B82F6"/>
  <path d="M18 6C19.6569 6 21 7.34315 21 9C21 10.6569 19.6569 12 18 12C16.3431 12 15 10.6569 15 9C15 7.34315 16.3431 6 18 6Z" fill="white"/>
  
  <!-- Stars -->
  <circle cx="10" cy="8" r="1" fill="#FCD34D"/>
  <circle cx="26" cy="10" r="1" fill="#FCD34D"/>
  <circle cx="6" cy="16" r="1" fill="#FCD34D"/>
  <circle cx="28" cy="18" r="1" fill="#FCD34D"/>
  
  <!-- Sleep waves -->
  <path d="M4 24C6 22 8 26 10 24C12 22 14 26 16 24" stroke="#6B7280" stroke-width="2" stroke-linecap="round" fill="none"/>
  <path d="M16 28C18 26 20 30 22 28C24 26 26 30 28 28" stroke="#6B7280" stroke-width="2" stroke-linecap="round" fill="none"/>
</svg>
